REM MD5 07ef736da4ef8333d11fb7d95018d379
FILE "Nichibutsu Arcade Classics (Japan).bin" BINARY
  TRACK 01 MODE2/2352
    INDEX 01 00:00:00
  TRACK 02 AUDIO
    INDEX 00 06:44:03
    INDEX 01 06:46:03
  TRACK 03 AUDIO
    INDEX 00 08:40:61
    INDEX 01 08:42:61
  TRACK 04 AUDIO
    INDEX 00 10:31:13
    INDEX 01 10:33:13
REM LEADOUT 13:51:26
